<?xml version="1.0" encoding="utf-8"?>
<!-- Generator: Adobe Illustrator 22.0.0, SVG Export Plug-In . SVG Version: 6.00 Build 0)  -->
<svg version="1.1" id="Layer_1" xmlns="http://www.w3.org/2000/svg" xmlns:xlink="http://www.w3.org/1999/xlink" x="0px" y="0px"
	 viewBox="0 0 70 70" style="enable-background:new 0 0 70 70;" xml:space="preserve">
<style type="text/css">
	.st0{fill:#FFFFFF;stroke:#000000;stroke-width:0.5;stroke-miterlimit:10;}
</style>
<g>
	<g>
		<g>
			<ellipse cx="33.6" cy="13.5" rx="3.2" ry="2.9"/>
		</g>
		<g>
			<path d="M33.6,16.5c-1.9,0-3.4-1.4-3.4-3s1.5-3,3.4-3s3.4,1.4,3.4,3S35.4,16.5,33.6,16.5z M33.6,10.7c-1.7,0-3,1.2-3,2.7
				c0,1.5,1.4,2.7,3,2.7c1.7,0,3-1.2,3-2.7C36.6,12,35.2,10.7,33.6,10.7z"/>
		</g>
	</g>
	<g>
		<g>
			<ellipse cx="33.6" cy="8.9" rx="1.9" ry="1.7"/>
		</g>
		<g>
			<path d="M33.6,10.8c-1.1,0-2-0.8-2-1.8s0.9-1.8,2-1.8s2,0.8,2,1.8S34.7,10.8,33.6,10.8z M33.6,7.3c-1,0-1.8,0.7-1.8,1.6
				c0,0.9,0.8,1.6,1.8,1.6s1.8-0.7,1.8-1.6C35.4,8,34.6,7.3,33.6,7.3z"/>
		</g>
	</g>
	<g>
		<g>
			<ellipse class="st0" cx="33.6" cy="6" rx="1.2" ry="1.1"/>
		</g>
		<g>
			<path class="st0" d="M33.6,7.1c-0.7,0-1.3-0.5-1.3-1.2s0.6-1.2,1.3-1.2s1.3,0.5,1.3,1.2S34.3,7.1,33.6,7.1z M33.6,5
				c-0.6,0-1.1,0.5-1.1,1c0,0.6,0.5,1,1.1,1s1.1-0.5,1.1-1C34.7,5.4,34.2,5,33.6,5z"/>
		</g>
	</g>
	<g>
		<g>
			<g>
				<path d="M5.4,64.8V39.2c0-12.6,11.4-22.9,25.4-23h5.5c12.4,0,22.8,8.1,25,18.7h-1c-2.1-9.8-11.5-17.3-22.9-17.8h0c0,0,0,0,0,0
					c-0.4,0-0.8,0-1.2,0h-5.4c-0.5,0-1,0-1.5,0c-12.8,0.7-23,10.3-23,22v25.6H5.4z"/>
				<path d="M36.8,16.7c-0.2,0-0.4,0-0.5,0h-5.4c-0.3,0-0.7,0-1,0C16.6,17.2,6,27.1,6,39.2v25.6h0.8V39.2c0-11.4,9.7-20.7,22-21.7
					c0.7,0,1.4-0.1,2.1-0.1h5.4c0.6,0,1.2,0,1.8,0.1c10.9,0.7,19.8,8,21.9,17.4h0.8C58.5,24.7,48.7,17,36.8,16.7z M36.3,15.8h-5.4
					C16.6,15.8,5,26.3,5,39.2v25.6h0.8V39.2c0-12.3,10.9-22.3,24.4-22.6c0.2,0,0.4,0,0.7,0h5.5c12.2,0.1,22.3,8,24.5,18.4h0.8
					C59.5,24.1,48.9,15.8,36.3,15.8z"/>
			</g>
		</g>
	</g>
	<g>
		<path d="M33,15.1l-0.2,0.7l-0.2,0.7l0,0.1c0,0,0,0,0,0.1c0,0.1-0.1,0.2-0.1,0.4c0,0.1-0.1,0.2-0.1,0.4c-0.8,3-3.6,14.7-3.6,28.9
			v18.4h-1.6V46.4c0-13.2,2.4-24.1,3.4-28.3c-1.4,1-3.6,2.7-5.8,5.4c-3.3,4.1-7.3,11.4-7.3,22.7v18.6h-1.6V46.2
			c0-17,8.5-25.4,12.9-28.7c0.2-0.1,0.4-0.3,0.5-0.4c0.2-0.1,0.4-0.3,0.6-0.4c0.1-0.1,0.2-0.1,0.3-0.2c0.2-0.1,0.4-0.3,0.6-0.4
			c0.3-0.2,0.5-0.3,0.6-0.3l0.1,0L33,15.1z"/>
	</g>
	<path d="M50.4,34.9h-1.7c-1.5-4.8-3.7-8.4-5.7-10.8c-2.2-2.7-4.3-4.4-5.8-5.3c0.7,2.8,2,8.6,2.8,16.1h-1.6c-1-9.9-3-16.8-3.1-17.5
		c0,0,0,0,0-0.1l-0.1-0.3l-0.1-0.4l-0.1-0.2l-0.2-0.7l0,0l0.1,0l0.7,0.4l0.7,0.4l0.1,0c0,0,0.1,0.1,0.3,0.2c0.2,0.1,0.4,0.2,0.6,0.4
		c0,0,0,0,0,0h0c0.2,0.1,0.4,0.2,0.6,0.4C41,19.4,47.4,24.6,50.4,34.9z"/>
	<g>
		<g>
			<path d="M43.6,51.5c0,0-8.2-1.7-9.6-14.4c0,0,15.2-0.7,20.5,9.5c0,0,5.1,11-4.5,13.6c0,0,7.4-4.5,2.8-12.2s-15.6-7.4-15.6-7.4
				S36.1,44.9,43.6,51.5z"/>
			<g>
				<path d="M47.9,65.2c1.1,0,2.2-0.2,3.2-0.5c5.6-1.9,8.1-8.5,9.1-11.3c0.2-0.4,0.3-0.9,0.4-1.1c0.4-0.6,2.3-0.6,3.4-0.3l1,0.2
					l-0.3-0.9c-2.4-6.7-10-4.3-10-4.3L55,48c0.3-0.1,5.9-1.8,8.3,2.7c-1.1-0.1-2.8,0-3.5,0.9c-0.2,0.2-0.3,0.6-0.6,1.3
					c-1,2.7-3.3,8.9-8.4,10.6c-3.3,1.1-7.3,0.2-11.8-2.7l2.4,1.8C44.8,64.8,45,65.2,47.9,65.2z"/>
			</g>
		</g>
		<circle cx="60.3" cy="49.4" r="0.5"/>
	</g>
</g>
</svg>
